<svg xmlns="http://www.w3.org/2000/svg" viewBox="0 0 1200 630">
  <defs>
    <linearGradient id="bg" x1="0%" y1="0%" x2="100%" y2="100%">
      <stop offset="0%" style="stop-color:#18181b"/>
      <stop offset="100%" style="stop-color:#09090b"/>
    </linearGradient>
    <linearGradient id="accent" x1="0%" y1="0%" x2="100%" y2="100%">
      <stop offset="0%" style="stop-color:#FB8D22"/>
      <stop offset="100%" style="stop-color:#FF5500"/>
    </linearGradient>
  </defs>
  
  <!-- Background -->
  <rect width="1200" height="630" fill="url(#bg)"/>
  
  <!-- Decorative circles -->
  <circle cx="100" cy="100" r="200" fill="#FF5500" opacity="0.1"/>
  <circle cx="1100" cy="530" r="300" fill="#FB8D22" opacity="0.1"/>
  
  <!-- Icon -->
  <g transform="translate(450, 120)">
    <rect width="120" height="120" rx="24" fill="url(#accent)"/>
    <path d="M35 42a10 10 0 0 1 10-10h16.4a5 5 0 0 1 4.74 3.42l7.49 22.46a5 5 0 0 1-2.51 6.05l-11.28 5.65a55.21 55.21 0 0 0 27.58 27.58l5.65-11.28a5 5 0 0 1 6.05-2.51l22.46 7.49a5 5 0 0 1 3.42 4.74V101a10 10 0 0 1-10 10h-5C56.58 111 35 89.42 35 45.5V42z" 
          fill="white" 
          transform="translate(15, 8) scale(0.85)"/>
  </g>
  
  <!-- Text -->
  <text x="600" y="320" text-anchor="middle" fill="white" font-family="system-ui, -apple-system, sans-serif" font-size="72" font-weight="bold">Spritz</text>
  <text x="600" y="390" text-anchor="middle" fill="#a1a1aa" font-family="system-ui, -apple-system, sans-serif" font-size="32">Voice Calls for Web3</text>
  <text x="600" y="450" text-anchor="middle" fill="#71717a" font-family="system-ui, -apple-system, sans-serif" font-size="24">Connect with passkeys or wallets</text>
  
  <!-- Bottom accent line -->
  <rect x="400" y="520" width="400" height="4" rx="2" fill="url(#accent)"/>
</svg>



